<?xml version="1.0" encoding="UTF-8"?>
<!DOCTYPE svg PUBLIC "-//W3C//DTD SVG 1.1//EN" "http://www.w3.org/Graphics/SVG/1.1/DTD/svg11.dtd">
<svg version="1.2" width="203.2mm" height="203.2mm" viewBox="0 0 20320 20320" preserveAspectRatio="xMidYMid" fill-rule="evenodd" stroke-width="28.222" stroke-linejoin="round" xmlns="http://www.w3.org/2000/svg" xmlns:ooo="http://xml.openoffice.org/svg/export" xmlns:xlink="http://www.w3.org/1999/xlink" xmlns:presentation="http://sun.com/xmlns/staroffice/presentation" xmlns:smil="http://www.w3.org/2001/SMIL20/" xmlns:anim="urn:oasis:names:tc:opendocument:xmlns:animation:1.0" xml:space="preserve">
 <defs class="ClipPathGroup">
  <clipPath id="presentation_clip_path" clipPathUnits="userSpaceOnUse">
   <rect x="0" y="0" width="20320" height="20320"/>
  </clipPath>
  <clipPath id="presentation_clip_path_shrink" clipPathUnits="userSpaceOnUse">
   <rect x="20" y="20" width="20280" height="20280"/>
  </clipPath>
 </defs>
 <defs class="TextShapeIndex">
  <g ooo:slide="id1" ooo:id-list="id3 id4"/>
 </defs>
 <defs class="EmbeddedBulletChars">
  <g id="bullet-char-template-57356" transform="scale(0.00048828125,-0.00048828125)">
   <path d="M 580,1141 L 1163,571 580,0 -4,571 580,1141 Z"/>
  </g>
  <g id="bullet-char-template-57354" transform="scale(0.00048828125,-0.00048828125)">
   <path d="M 8,1128 L 1137,1128 1137,0 8,0 8,1128 Z"/>
  </g>
  <g id="bullet-char-template-10146" transform="scale(0.00048828125,-0.00048828125)">
   <path d="M 174,0 L 602,739 174,1481 1456,739 174,0 Z M 1358,739 L 309,1346 659,739 1358,739 Z"/>
  </g>
  <g id="bullet-char-template-10132" transform="scale(0.00048828125,-0.00048828125)">
   <path d="M 2015,739 L 1276,0 717,0 1260,543 174,543 174,936 1260,936 717,1481 1274,1481 2015,739 Z"/>
  </g>
  <g id="bullet-char-template-10007" transform="scale(0.00048828125,-0.00048828125)">
   <path d="M 0,-2 C -7,14 -16,27 -25,37 L 356,567 C 262,823 215,952 215,954 215,979 228,992 255,992 264,992 276,990 289,987 310,991 331,999 354,1012 L 381,999 492,748 772,1049 836,1024 860,1049 C 881,1039 901,1025 922,1006 886,937 835,863 770,784 769,783 710,716 594,584 L 774,223 C 774,196 753,168 711,139 L 727,119 C 717,90 699,76 672,76 641,76 570,178 457,381 L 164,-76 C 142,-110 111,-127 72,-127 30,-127 9,-110 8,-76 1,-67 -2,-52 -2,-32 -2,-23 -1,-13 0,-2 Z"/>
  </g>
  <g id="bullet-char-template-10004" transform="scale(0.00048828125,-0.00048828125)">
   <path d="M 285,-33 C 182,-33 111,30 74,156 52,228 41,333 41,471 41,549 55,616 82,672 116,743 169,778 240,778 293,778 328,747 346,684 L 369,508 C 377,444 397,411 428,410 L 1163,1116 C 1174,1127 1196,1133 1229,1133 1271,1133 1292,1118 1292,1087 L 1292,965 C 1292,929 1282,901 1262,881 L 442,47 C 390,-6 338,-33 285,-33 Z"/>
  </g>
  <g id="bullet-char-template-9679" transform="scale(0.00048828125,-0.00048828125)">
   <path d="M 813,0 C 632,0 489,54 383,161 276,268 223,411 223,592 223,773 276,916 383,1023 489,1130 632,1184 813,1184 992,1184 1136,1130 1245,1023 1353,916 1407,772 1407,592 1407,412 1353,268 1245,161 1136,54 992,0 813,0 Z"/>
  </g>
  <g id="bullet-char-template-8226" transform="scale(0.00048828125,-0.00048828125)">
   <path d="M 346,457 C 273,457 209,483 155,535 101,586 74,649 74,723 74,796 101,859 155,911 209,963 273,989 346,989 419,989 480,963 531,910 582,859 608,796 608,723 608,648 583,586 532,535 482,483 420,457 346,457 Z"/>
  </g>
  <g id="bullet-char-template-8211" transform="scale(0.00048828125,-0.00048828125)">
   <path d="M -4,459 L 1135,459 1135,606 -4,606 -4,459 Z"/>
  </g>
  <g id="bullet-char-template-61548" transform="scale(0.00048828125,-0.00048828125)">
   <path d="M 173,740 C 173,903 231,1043 346,1159 462,1274 601,1332 765,1332 928,1332 1067,1274 1183,1159 1299,1043 1357,903 1357,740 1357,577 1299,437 1183,322 1067,206 928,148 765,148 601,148 462,206 346,322 231,437 173,577 173,740 Z"/>
  </g>
 </defs>
 <g>
  <g id="id2" class="Master_Slide">
   <g id="bg-id2" class="Background"/>
   <g id="bo-id2" class="BackgroundObjects"/>
  </g>
 </g>
 <g class="SlideGroup">
  <g>
   <g id="container-id1">
    <g id="id1" class="Slide" clip-path="url(#presentation_clip_path)">
     <g class="Page">
      <g class="Graphic">
       <g id="id3">
        <rect class="BoundingBox" stroke="none" fill="none" x="317" y="6964" width="19634" height="19634"/>
        <path fill="rgb(158,90,35)" stroke="none" d="M 2025,13740 C 2971,13740 3715,15091 3715,16781 3715,18470 2971,19821 2025,19821 L 18242,19821 C 19188,19821 19931,18470 19931,16781 19931,15091 19188,13740 18242,13740 L 2025,13740 Z"/>
        <path fill="rgb(132,68,20)" stroke="none" d="M 3444,15429 C 3242,15429 3106,15294 3106,15091 3106,14889 3242,14753 3444,14753 L 6417,14753 C 6620,14753 6755,14889 6755,15091 6755,15294 6620,15429 6417,15429 L 3444,15429 Z"/>
        <path fill="rgb(132,68,20)" stroke="none" d="M 7769,15429 C 7566,15429 7431,15294 7431,15091 7431,14889 7566,14753 7769,14753 L 13174,14753 C 13377,14753 13512,14889 13512,15091 13512,15294 13377,15429 13174,15429 L 7769,15429 Z"/>
        <path fill="rgb(132,68,20)" stroke="none" d="M 14525,15429 C 14323,15429 14188,15294 14188,15091 14188,14889 14323,14753 14525,14753 L 19255,14753 C 19458,14753 19593,14889 19593,15091 19593,15294 19458,15429 19255,15429 L 14525,15429 Z"/>
        <path fill="rgb(132,68,20)" stroke="none" d="M 10471,17118 C 10269,17118 10133,16983 10133,16781 10133,16578 10269,16443 10471,16443 L 11485,16443 C 11688,16443 11823,16578 11823,16781 11823,16983 11688,17118 11485,17118 L 10471,17118 Z"/>
        <path fill="rgb(132,68,20)" stroke="none" d="M 5066,17118 C 4863,17118 4728,16983 4728,16781 4728,16578 4863,16443 5066,16443 L 8444,16443 C 8647,16443 8782,16578 8782,16781 8782,16983 8647,17118 8444,17118 L 5066,17118 Z"/>
        <path fill="rgb(132,68,20)" stroke="none" d="M 12836,17118 C 12633,17118 12498,16983 12498,16781 12498,16578 12633,16443 12836,16443 L 14863,16443 C 15066,16443 15201,16578 15201,16781 15201,16983 15066,17118 14863,17118 L 12836,17118 Z"/>
        <path fill="rgb(132,68,20)" stroke="none" d="M 16552,17118 C 16350,17118 16215,16983 16215,16781 16215,16578 16350,16443 16552,16443 L 19593,16443 C 19796,16443 19931,16578 19931,16781 19931,16983 19796,17118 19593,17118 L 16552,17118 Z"/>
        <path fill="rgb(132,68,20)" stroke="none" d="M 3444,18808 C 3242,18808 3106,18672 3106,18470 3106,18267 3242,18132 3444,18132 L 6755,18132 C 6958,18132 7093,18267 7093,18470 7093,18672 6958,18808 6755,18808 L 3444,18808 Z"/>
        <path fill="rgb(132,68,20)" stroke="none" d="M 15201,18808 C 14998,18808 14863,18672 14863,18470 14863,18267 14998,18132 15201,18132 L 17904,18132 C 18107,18132 18242,18267 18242,18470 18242,18672 18107,18808 17904,18808 L 15201,18808 Z"/>
        <path fill="rgb(132,68,20)" stroke="none" d="M 8782,18808 C 8579,18808 8444,18672 8444,18470 8444,18267 8579,18132 8782,18132 L 12836,18132 C 13039,18132 13174,18267 13174,18470 13174,18672 13039,18808 12836,18808 L 8782,18808 Z"/>
        <path fill="rgb(206,141,91)" stroke="none" d="M 2025,19821 C 1079,19821 336,18470 336,16781 336,15091 1079,13740 2025,13740 2971,13740 3715,15091 3715,16781 3715,18470 2971,19821 2025,19821 Z"/>
        <path fill="rgb(132,68,20)" stroke="none" d="M 1721,18470 C 1620,18267 1350,17693 1350,16781 1350,15868 1620,15294 1721,15091 1823,14922 2025,14889 2194,14956 2363,15058 2397,15260 2329,15429 2228,15598 2025,16037 2025,16781 2025,17524 2228,17963 2329,18132 2431,18301 2363,18503 2194,18605 2127,18605 2093,18639 2025,18639 1924,18639 1789,18571 1721,18470 Z"/>
       </g>
      </g>
      <g class="Graphic">
       <g id="id4">
        <rect class="BoundingBox" stroke="none" fill="none" x="2997" y="3312" width="14762" height="14761"/>
        <defs>
         <clipPath id="clip_path_1" clipPathUnits="userSpaceOnUse">
          <path d="M 17758,3312 L 2997,3312 2997,18072 17758,18072 17758,3312 Z"/>
         </clipPath>
        </defs>
        <g clip-path="url(#clip_path_1)">
         <path fill="rgb(255,161,156)" stroke="none" d="M 13686,12601 C 13408,13029 13172,13484 12983,13959 12946,14059 12851,14126 12744,14128 L 10495,14128 C 10406,14128 10323,14081 10277,14006 10231,13930 10227,13835 10268,13756 10412,13392 10750,13141 11141,13110 11650,13110 12159,13110 12159,12346 12158,12262 12150,12178 12136,12096 L 13686,12601 Z"/>
         <path fill="rgb(255,161,156)" stroke="none" d="M 10378,11328 C 10378,11328 8851,11837 8087,12601 7324,13364 7578,13873 7069,13873 L 5847,13873 C 5766,13874 5690,13836 5642,13771 5593,13705 5580,13621 5604,13544 5712,13214 5974,12957 6306,12855 7069,12601 7833,10819 8087,9801 L 10378,11328 Z"/>
         <path fill="rgb(91,111,132)" stroke="none" d="M 2997,6748 C 3001,6833 3020,6918 3053,6997 3282,7585 4191,8529 5288,8529 6560,8529 6815,8783 7069,9547 7230,9962 7491,10330 7830,10618 L 9774,11565 9777,11565 C 9807,11573 9838,11578 9869,11583 11202,11804 11370,12028 11902,12420 11973,12471 12050,12527 12139,12585 L 12370,12708 13325,13211 C 13907,13477 14515,13683 15139,13827 L 16633,13731 C 17384,13367 17758,12494 17758,10310 17758,7765 14959,6239 13177,6239 11396,6239 11141,6748 9869,6493 9018,6323 8507,6040 7960,5870 L 6328,5735 C 5718,5724 5109,5808 4524,5984 4130,6116 3738,6246 3450,6379 L 3447,6379 C 3175,6501 2997,6625 2997,6748 L 2997,6748 Z"/>
         <path fill="rgb(255,161,156)" stroke="none" d="M 6422,6139 C 6340,6029 6305,5891 6326,5756 6380,5390 6580,4712 7324,4712 8126,4712 8138,6137 7608,6738 7505,6847 7359,6905 7210,6895 7060,6886 6923,6810 6834,6689 L 6422,6139 Z"/>
         <path fill="rgb(82,100,118)" stroke="none" d="M 11724,11539 C 11820,11799 11881,12070 11905,12346 11905,12371 11904,12395 11902,12420 11973,12471 12050,12527 12139,12585 L 12370,12708 C 12401,12589 12415,12468 12414,12346 12393,12018 12324,11695 12210,11387 12032,10819 11846,10231 12131,9661 12594,8738 14030,8274 14704,8274 14845,8274 14959,8160 14959,8020 14959,7879 14845,7765 14704,7765 13941,7765 12266,8254 11678,9432 11299,10188 11535,10936 11724,11539 L 11724,11539 Z"/>
         <path fill="rgb(255,161,156)" stroke="none" d="M 15234,13066 C 15215,13502 15121,14186 14866,14544 14774,14683 14292,14810 14130,14845 11862,15325 6361,14864 4362,15839 4188,15926 4113,16135 4194,16313 4274,16490 4481,16572 4661,16498 5444,16167 6890,16145 7747,16142 11119,16131 13881,16491 15319,15855 16281,15450 16618,14167 16718,13154 16744,12883 16620,12620 16394,12467 16169,12314 15878,12297 15636,12422 15394,12547 15239,12795 15233,13067 L 15234,13066 Z"/>
         <path fill="rgb(255,161,156)" stroke="none" d="M 2997,6748 C 3001,6833 3020,6918 3053,6997 3073,6993 3091,6986 3109,6977 3229,6918 3496,6842 3580,6928 3680,7028 3841,7028 3941,6928 4041,6828 4041,6667 3941,6567 3810,6440 3633,6372 3450,6379 L 3447,6379 C 3175,6501 2997,6625 2997,6748 L 2997,6748 Z"/>
         <path fill="rgb(82,100,118)" stroke="none" d="M 5542,7002 L 5797,7002 C 5937,7002 6051,6888 6051,6748 6051,6607 5937,6493 5797,6493 L 5542,6493 C 5401,6493 5288,6607 5288,6748 5288,6888 5401,7002 5542,7002 L 5542,7002 Z"/>
        </g>
       </g>
      </g>
     </g>
    </g>
   </g>
  </g>
 </g>
</svg>